<svg id="visual" viewBox="0 0 900 600" width="900" height="600" xmlns="http://www.w3.org/2000/svg" xmlns:xlink="http://www.w3.org/1999/xlink" version="1.1"><rect x="0" y="0" width="900" height="600" fill="#140021"></rect><path d="M404 0L368 0L368 86L472 86L472 171L498 171L498 257L372 257L372 343L326 343L326 429L388 429L388 514L503 514L503 600L0 600L0 514L0 514L0 429L0 429L0 343L0 343L0 257L0 257L0 171L0 171L0 86L0 86L0 0L0 0Z" fill="#560090"></path><path d="M354 0L244 0L244 86L228 86L228 171L290 171L290 257L287 257L287 343L324 343L324 429L206 429L206 514L341 514L341 600L0 600L0 514L0 514L0 429L0 429L0 343L0 343L0 257L0 257L0 171L0 171L0 86L0 86L0 0L0 0Z" fill="#7700c6"></path><path d="M121 0L176 0L176 86L172 86L172 171L179 171L179 257L126 257L126 343L159 343L159 429L127 429L127 514L207 514L207 600L0 600L0 514L0 514L0 429L0 429L0 343L0 343L0 257L0 257L0 171L0 171L0 86L0 86L0 0L0 0Z" fill="#9900ff"></path></svg>